<?xml version="1.0" encoding="UTF-8" standalone="no"?>
<!DOCTYPE svg PUBLIC "-//W3C//DTD SVG 1.1//EN"
 "http://www.w3.org/Graphics/SVG/1.1/DTD/svg11.dtd">
<!-- Generated by graphviz version 2.38.0 (20140413.2041)
 -->
<!-- Title: controllers_diagram Pages: 1 -->
<svg width="523pt" height="532pt"
 viewBox="0.00 0.00 522.53 532.00" xmlns="http://www.w3.org/2000/svg" xmlns:xlink="http://www.w3.org/1999/xlink">
<g id="graph0" class="graph" transform="scale(1 1) rotate(0) translate(198.714 318.5)">
<title>controllers_diagram</title>
<polygon fill="none" stroke="none" points="-198.714,213.5 -198.714,-318.5 323.821,-318.5 323.821,213.5 -198.714,213.5"/>
<!-- _diagram_info -->
<g id="node1" class="node"><title>_diagram_info</title>
<text text-anchor="start" x="98.3123" y="30.9" font-family="Times,serif" font-size="13.00">Controllers diagram</text>
<text text-anchor="start" x="98.3123" y="43.9" font-family="Times,serif" font-size="13.00">Date: Oct 03 2016 &#45; 10:34</text>
<text text-anchor="start" x="98.3123" y="56.9" font-family="Times,serif" font-size="13.00">Migration version: 20161002055209</text>
<text text-anchor="start" x="98.3123" y="69.9" font-family="Times,serif" font-size="13.00">Generated by RailRoady 1.5.2</text>
<text text-anchor="start" x="98.3123" y="82.9" font-family="Times,serif" font-size="13.00">http://railroady.prestonlee.com</text>
</g>
<!-- ApplicationController -->
<g id="node2" class="node"><title>ApplicationController</title>
<path fill="none" stroke="black" d="M192.179,-181C192.179,-181 307.821,-181 307.821,-181 313.821,-181 319.821,-187 319.821,-193 319.821,-193 319.821,-259 319.821,-259 319.821,-265 313.821,-271 307.821,-271 307.821,-271 192.179,-271 192.179,-271 186.179,-271 180.179,-265 180.179,-259 180.179,-259 180.179,-193 180.179,-193 180.179,-187 186.179,-181 192.179,-181"/>
<text text-anchor="middle" x="250" y="-255.8" font-family="Times,serif" font-size="14.00">ApplicationController</text>
<polyline fill="none" stroke="black" points="180.179,-249 319.821,-249 "/>
<text text-anchor="start" x="188.179" y="-233.8" font-family="Times,serif" font-size="14.00">current_user</text>
<polyline fill="none" stroke="black" points="180.179,-227 319.821,-227 "/>
<polyline fill="none" stroke="black" points="180.179,-203 319.821,-203 "/>
<text text-anchor="start" x="188.179" y="-187.8" font-family="Times,serif" font-size="14.00">_layout</text>
</g>
<!-- HomeController -->
<g id="node3" class="node"><title>HomeController</title>
<path fill="none" stroke="black" d="M102.017,-16C102.017,-16 191.983,-16 191.983,-16 197.983,-16 203.983,-22 203.983,-28 203.983,-28 203.983,-136 203.983,-136 203.983,-142 197.983,-148 191.983,-148 191.983,-148 102.017,-148 102.017,-148 96.0171,-148 90.0171,-142 90.0171,-136 90.0171,-136 90.0171,-28 90.0171,-28 90.0171,-22 96.0171,-16 102.017,-16"/>
<text text-anchor="middle" x="147" y="-132.8" font-family="Times,serif" font-size="14.00">HomeController</text>
<polyline fill="none" stroke="black" points="90.0171,-126 203.983,-126 "/>
<text text-anchor="start" x="98.0171" y="-110.8" font-family="Times,serif" font-size="14.00">about</text>
<text text-anchor="start" x="98.0171" y="-96.8" font-family="Times,serif" font-size="14.00">load_suggestions</text>
<text text-anchor="start" x="98.0171" y="-82.8" font-family="Times,serif" font-size="14.00">new</text>
<polyline fill="none" stroke="black" points="90.0171,-76 203.983,-76 "/>
<polyline fill="none" stroke="black" points="90.0171,-52 203.983,-52 "/>
<text text-anchor="start" x="98.0171" y="-36.8" font-family="Times,serif" font-size="14.00">_layout</text>
<text text-anchor="start" x="98.0171" y="-22.8" font-family="Times,serif" font-size="14.00">determine_layout</text>
</g>
<!-- SessionsController -->
<g id="node4" class="node"><title>SessionsController</title>
<path fill="none" stroke="black" d="M-47.8896,-106C-47.8896,-106 49.8896,-106 49.8896,-106 55.8896,-106 61.8896,-112 61.8896,-118 61.8896,-118 61.8896,-212 61.8896,-212 61.8896,-218 55.8896,-224 49.8896,-224 49.8896,-224 -47.8896,-224 -47.8896,-224 -53.8896,-224 -59.8896,-218 -59.8896,-212 -59.8896,-212 -59.8896,-118 -59.8896,-118 -59.8896,-112 -53.8896,-106 -47.8896,-106"/>
<text text-anchor="middle" x="1" y="-208.8" font-family="Times,serif" font-size="14.00">SessionsController</text>
<polyline fill="none" stroke="black" points="-59.8896,-202 61.8896,-202 "/>
<text text-anchor="start" x="-51.8896" y="-186.8" font-family="Times,serif" font-size="14.00">create</text>
<text text-anchor="start" x="-51.8896" y="-172.8" font-family="Times,serif" font-size="14.00">destroy</text>
<text text-anchor="start" x="-51.8896" y="-158.8" font-family="Times,serif" font-size="14.00">new</text>
<polyline fill="none" stroke="black" points="-59.8896,-152 61.8896,-152 "/>
<polyline fill="none" stroke="black" points="-59.8896,-128 61.8896,-128 "/>
<text text-anchor="start" x="-51.8896" y="-112.8" font-family="Times,serif" font-size="14.00">_layout</text>
</g>
<!-- SubjectsController -->
<g id="node5" class="node"><title>SubjectsController</title>
<path fill="none" stroke="black" d="M11.5068,209C11.5068,209 108.493,209 108.493,209 114.493,209 120.493,203 120.493,197 120.493,197 120.493,129 120.493,129 120.493,123 114.493,117 108.493,117 108.493,117 11.5068,117 11.5068,117 5.50684,117 -0.493164,123 -0.493164,129 -0.493164,129 -0.493164,197 -0.493164,197 -0.493164,203 5.50684,209 11.5068,209"/>
<text text-anchor="middle" x="60" y="132.2" font-family="Times,serif" font-size="14.00">SubjectsController</text>
<polyline fill="none" stroke="black" points="-0.493164,139 120.493,139 "/>
<polyline fill="none" stroke="black" points="-0.493164,163 120.493,163 "/>
<polyline fill="none" stroke="black" points="-0.493164,187 120.493,187 "/>
<text text-anchor="start" x="7.50684" y="202.2" font-family="Times,serif" font-size="14.00">_layout</text>
</g>
<!-- TutorsController -->
<g id="node6" class="node"><title>TutorsController</title>
<path fill="none" stroke="black" d="M-77.6416,89C-77.6416,89 49.6416,89 49.6416,89 55.6416,89 61.6416,83 61.6416,77 61.6416,77 61.6416,-59 61.6416,-59 61.6416,-65 55.6416,-71 49.6416,-71 49.6416,-71 -77.6416,-71 -77.6416,-71 -83.6416,-71 -89.6416,-65 -89.6416,-59 -89.6416,-59 -89.6416,77 -89.6416,77 -89.6416,83 -83.6416,89 -77.6416,89"/>
<text text-anchor="middle" x="-14" y="-55.8" font-family="Times,serif" font-size="14.00">TutorsController</text>
<polyline fill="none" stroke="black" points="-89.6416,-49 61.6416,-49 "/>
<text text-anchor="start" x="-81.6416" y="-33.8" font-family="Times,serif" font-size="14.00">courses_for_department</text>
<text text-anchor="start" x="-81.6416" y="-19.8" font-family="Times,serif" font-size="14.00">manage_course</text>
<text text-anchor="start" x="-81.6416" y="-5.8" font-family="Times,serif" font-size="14.00">new</text>
<text text-anchor="start" x="-81.6416" y="8.2" font-family="Times,serif" font-size="14.00">signup_tutor</text>
<text text-anchor="start" x="-81.6416" y="22.2" font-family="Times,serif" font-size="14.00">tutor_course_signup</text>
<polyline fill="none" stroke="black" points="-89.6416,29 61.6416,29 "/>
<polyline fill="none" stroke="black" points="-89.6416,53 61.6416,53 "/>
<text text-anchor="start" x="-81.6416" y="68.2" font-family="Times,serif" font-size="14.00">_layout</text>
<text text-anchor="start" x="-81.6416" y="82.2" font-family="Times,serif" font-size="14.00">determine_layout</text>
</g>
<!-- UsersController -->
<g id="node7" class="node"><title>UsersController</title>
<path fill="none" stroke="black" d="M-182.714,-196C-182.714,-196 -101.286,-196 -101.286,-196 -95.2861,-196 -89.2861,-202 -89.2861,-208 -89.2861,-208 -89.2861,-302 -89.2861,-302 -89.2861,-308 -95.2861,-314 -101.286,-314 -101.286,-314 -182.714,-314 -182.714,-314 -188.714,-314 -194.714,-308 -194.714,-302 -194.714,-302 -194.714,-208 -194.714,-208 -194.714,-202 -188.714,-196 -182.714,-196"/>
<text text-anchor="middle" x="-142" y="-298.8" font-family="Times,serif" font-size="14.00">UsersController</text>
<polyline fill="none" stroke="black" points="-194.714,-292 -89.2861,-292 "/>
<text text-anchor="start" x="-186.714" y="-276.8" font-family="Times,serif" font-size="14.00">create</text>
<text text-anchor="start" x="-186.714" y="-262.8" font-family="Times,serif" font-size="14.00">new</text>
<text text-anchor="start" x="-186.714" y="-248.8" font-family="Times,serif" font-size="14.00">user_params</text>
<polyline fill="none" stroke="black" points="-194.714,-242 -89.2861,-242 "/>
<polyline fill="none" stroke="black" points="-194.714,-218 -89.2861,-218 "/>
<text text-anchor="start" x="-186.714" y="-202.8" font-family="Times,serif" font-size="14.00">_layout</text>
</g>
</g>
</svg>
