<?xml version="1.0" encoding="UTF-8" standalone="no"?>
<!DOCTYPE svg PUBLIC "-//W3C//DTD SVG 1.1//EN"
 "http://www.w3.org/Graphics/SVG/1.1/DTD/svg11.dtd">
<!-- Generated by graphviz version 2.38.0 (20140413.2041)
 -->
<!-- Title: controllers_diagram Pages: 1 -->
<svg width="592pt" height="505pt"
 viewBox="0.00 0.00 592.31 505.00" xmlns="http://www.w3.org/2000/svg" xmlns:xlink="http://www.w3.org/1999/xlink">
<g id="graph0" class="graph" transform="scale(1 1) rotate(0) translate(227.821 261.5)">
<title>controllers_diagram</title>
<polygon fill="none" stroke="none" points="-227.821,243.5 -227.821,-261.5 364.493,-261.5 364.493,243.5 -227.821,243.5"/>
<!-- _diagram_info -->
<g id="node1" class="node"><title>_diagram_info</title>
<text text-anchor="start" x="-135.688" y="-203.1" font-family="Times,serif" font-size="13.00">Controllers diagram</text>
<text text-anchor="start" x="-135.688" y="-190.1" font-family="Times,serif" font-size="13.00">Date: Oct 09 2016 &#45; 17:24</text>
<text text-anchor="start" x="-135.688" y="-177.1" font-family="Times,serif" font-size="13.00">Migration version: 20161005033305</text>
<text text-anchor="start" x="-135.688" y="-164.1" font-family="Times,serif" font-size="13.00">Generated by RailRoady 1.5.2</text>
<text text-anchor="start" x="-135.688" y="-151.1" font-family="Times,serif" font-size="13.00">http://railroady.prestonlee.com</text>
</g>
<!-- ApplicationController -->
<g id="node2" class="node"><title>ApplicationController</title>
<path fill="none" stroke="black" d="M-211.821,223C-211.821,223 -96.1792,223 -96.1792,223 -90.1792,223 -84.1792,217 -84.1792,211 -84.1792,211 -84.1792,145 -84.1792,145 -84.1792,139 -90.1792,133 -96.1792,133 -96.1792,133 -211.821,133 -211.821,133 -217.821,133 -223.821,139 -223.821,145 -223.821,145 -223.821,211 -223.821,211 -223.821,217 -217.821,223 -211.821,223"/>
<text text-anchor="middle" x="-154" y="148.2" font-family="Times,serif" font-size="14.00">ApplicationController</text>
<polyline fill="none" stroke="black" points="-223.821,155 -84.1792,155 "/>
<text text-anchor="start" x="-215.821" y="170.2" font-family="Times,serif" font-size="14.00">current_user</text>
<polyline fill="none" stroke="black" points="-223.821,177 -84.1792,177 "/>
<polyline fill="none" stroke="black" points="-223.821,201 -84.1792,201 "/>
<text text-anchor="start" x="-215.821" y="216.2" font-family="Times,serif" font-size="14.00">_layout</text>
</g>
<!-- HomeController -->
<g id="node3" class="node"><title>HomeController</title>
<path fill="none" stroke="black" d="M107.679,-97C107.679,-97 202.321,-97 202.321,-97 208.321,-97 214.321,-103 214.321,-109 214.321,-109 214.321,-245 214.321,-245 214.321,-251 208.321,-257 202.321,-257 202.321,-257 107.679,-257 107.679,-257 101.679,-257 95.6792,-251 95.6792,-245 95.6792,-245 95.6792,-109 95.6792,-109 95.6792,-103 101.679,-97 107.679,-97"/>
<text text-anchor="middle" x="155" y="-241.8" font-family="Times,serif" font-size="14.00">HomeController</text>
<polyline fill="none" stroke="black" points="95.6792,-235 214.321,-235 "/>
<text text-anchor="start" x="103.679" y="-219.8" font-family="Times,serif" font-size="14.00">about</text>
<text text-anchor="start" x="103.679" y="-205.8" font-family="Times,serif" font-size="14.00">init_trie</text>
<text text-anchor="start" x="103.679" y="-191.8" font-family="Times,serif" font-size="14.00">new</text>
<text text-anchor="start" x="103.679" y="-177.8" font-family="Times,serif" font-size="14.00">search_course</text>
<text text-anchor="start" x="103.679" y="-163.8" font-family="Times,serif" font-size="14.00">search_suggestion</text>
<polyline fill="none" stroke="black" points="95.6792,-157 214.321,-157 "/>
<polyline fill="none" stroke="black" points="95.6792,-133 214.321,-133 "/>
<text text-anchor="start" x="103.679" y="-117.8" font-family="Times,serif" font-size="14.00">_layout</text>
<text text-anchor="start" x="103.679" y="-103.8" font-family="Times,serif" font-size="14.00">determine_layout</text>
</g>
<!-- ProfileController -->
<g id="node4" class="node"><title>ProfileController</title>
<path fill="none" stroke="black" d="M11.5171,239C11.5171,239 136.483,239 136.483,239 142.483,239 148.483,233 148.483,227 148.483,227 148.483,147 148.483,147 148.483,141 142.483,135 136.483,135 136.483,135 11.5171,135 11.5171,135 5.51709,135 -0.48291,141 -0.48291,147 -0.48291,147 -0.48291,227 -0.48291,227 -0.48291,233 5.51709,239 11.5171,239"/>
<text text-anchor="middle" x="74" y="150.2" font-family="Times,serif" font-size="14.00">ProfileController</text>
<polyline fill="none" stroke="black" points="-0.48291,157 148.483,157 "/>
<text text-anchor="start" x="7.51709" y="172.2" font-family="Times,serif" font-size="14.00">tutor_overview</text>
<text text-anchor="start" x="7.51709" y="186.2" font-family="Times,serif" font-size="14.00">view_courses_for_tutor</text>
<polyline fill="none" stroke="black" points="-0.48291,193 148.483,193 "/>
<polyline fill="none" stroke="black" points="-0.48291,217 148.483,217 "/>
<text text-anchor="start" x="7.51709" y="232.2" font-family="Times,serif" font-size="14.00">_layout</text>
</g>
<!-- SessionsController -->
<g id="node5" class="node"><title>SessionsController</title>
<path fill="none" stroke="black" d="M188.11,239C188.11,239 285.89,239 285.89,239 291.89,239 297.89,233 297.89,227 297.89,227 297.89,133 297.89,133 297.89,127 291.89,121 285.89,121 285.89,121 188.11,121 188.11,121 182.11,121 176.11,127 176.11,133 176.11,133 176.11,227 176.11,227 176.11,233 182.11,239 188.11,239"/>
<text text-anchor="middle" x="237" y="136.2" font-family="Times,serif" font-size="14.00">SessionsController</text>
<polyline fill="none" stroke="black" points="176.11,143 297.89,143 "/>
<text text-anchor="start" x="184.11" y="158.2" font-family="Times,serif" font-size="14.00">create</text>
<text text-anchor="start" x="184.11" y="172.2" font-family="Times,serif" font-size="14.00">destroy</text>
<text text-anchor="start" x="184.11" y="186.2" font-family="Times,serif" font-size="14.00">new</text>
<polyline fill="none" stroke="black" points="176.11,193 297.89,193 "/>
<polyline fill="none" stroke="black" points="176.11,217 297.89,217 "/>
<text text-anchor="start" x="184.11" y="232.2" font-family="Times,serif" font-size="14.00">_layout</text>
</g>
<!-- SubjectsController -->
<g id="node6" class="node"><title>SubjectsController</title>
<path fill="none" stroke="black" d="M251.507,95C251.507,95 348.493,95 348.493,95 354.493,95 360.493,89 360.493,83 360.493,83 360.493,15 360.493,15 360.493,9 354.493,3 348.493,3 348.493,3 251.507,3 251.507,3 245.507,3 239.507,9 239.507,15 239.507,15 239.507,83 239.507,83 239.507,89 245.507,95 251.507,95"/>
<text text-anchor="middle" x="300" y="18.2" font-family="Times,serif" font-size="14.00">SubjectsController</text>
<polyline fill="none" stroke="black" points="239.507,25 360.493,25 "/>
<polyline fill="none" stroke="black" points="239.507,49 360.493,49 "/>
<polyline fill="none" stroke="black" points="239.507,73 360.493,73 "/>
<text text-anchor="start" x="247.507" y="88.2" font-family="Times,serif" font-size="14.00">_layout</text>
</g>
<!-- TutorsController -->
<g id="node7" class="node"><title>TutorsController</title>
<path fill="none" stroke="black" d="M-67.6416,95C-67.6416,95 59.6416,95 59.6416,95 65.6416,95 71.6416,89 71.6416,83 71.6416,83 71.6416,-81 71.6416,-81 71.6416,-87 65.6416,-93 59.6416,-93 59.6416,-93 -67.6416,-93 -67.6416,-93 -73.6416,-93 -79.6416,-87 -79.6416,-81 -79.6416,-81 -79.6416,83 -79.6416,83 -79.6416,89 -73.6416,95 -67.6416,95"/>
<text text-anchor="middle" x="-4" y="-77.8" font-family="Times,serif" font-size="14.00">TutorsController</text>
<polyline fill="none" stroke="black" points="-79.6416,-71 71.6416,-71 "/>
<text text-anchor="start" x="-71.6416" y="-55.8" font-family="Times,serif" font-size="14.00">new</text>
<text text-anchor="start" x="-71.6416" y="-41.8" font-family="Times,serif" font-size="14.00">delete_course_for_tutor</text>
<text text-anchor="start" x="-71.6416" y="-27.8" font-family="Times,serif" font-size="14.00">manage_course</text>
<text text-anchor="start" x="-71.6416" y="-13.8" font-family="Times,serif" font-size="14.00">courses_for_department</text>
<text text-anchor="start" x="-71.6416" y="0.2" font-family="Times,serif" font-size="14.00">signup_tutor</text>
<text text-anchor="start" x="-71.6416" y="14.2" font-family="Times,serif" font-size="14.00">tutor_course_signup</text>
<text text-anchor="start" x="-71.6416" y="28.2" font-family="Times,serif" font-size="14.00">view_tutors_for_course</text>
<polyline fill="none" stroke="black" points="-79.6416,35 71.6416,35 "/>
<polyline fill="none" stroke="black" points="-79.6416,59 71.6416,59 "/>
<text text-anchor="start" x="-71.6416" y="74.2" font-family="Times,serif" font-size="14.00">_layout</text>
<text text-anchor="start" x="-71.6416" y="88.2" font-family="Times,serif" font-size="14.00">determine_layout</text>
</g>
<!-- UsersController -->
<g id="node8" class="node"><title>UsersController</title>
<path fill="none" stroke="black" d="M108.017,95C108.017,95 197.983,95 197.983,95 203.983,95 209.983,89 209.983,83 209.983,83 209.983,-53 209.983,-53 209.983,-59 203.983,-65 197.983,-65 197.983,-65 108.017,-65 108.017,-65 102.017,-65 96.0171,-59 96.0171,-53 96.0171,-53 96.0171,83 96.0171,83 96.0171,89 102.017,95 108.017,95"/>
<text text-anchor="middle" x="153" y="-49.8" font-family="Times,serif" font-size="14.00">UsersController</text>
<polyline fill="none" stroke="black" points="96.0171,-43 209.983,-43 "/>
<text text-anchor="start" x="104.017" y="-27.8" font-family="Times,serif" font-size="14.00">create</text>
<text text-anchor="start" x="104.017" y="-13.8" font-family="Times,serif" font-size="14.00">edit_user</text>
<text text-anchor="start" x="104.017" y="0.2" font-family="Times,serif" font-size="14.00">new</text>
<text text-anchor="start" x="104.017" y="14.2" font-family="Times,serif" font-size="14.00">user_params</text>
<text text-anchor="start" x="104.017" y="28.2" font-family="Times,serif" font-size="14.00">user_profile</text>
<polyline fill="none" stroke="black" points="96.0171,35 209.983,35 "/>
<polyline fill="none" stroke="black" points="96.0171,59 209.983,59 "/>
<text text-anchor="start" x="104.017" y="74.2" font-family="Times,serif" font-size="14.00">_layout</text>
<text text-anchor="start" x="104.017" y="88.2" font-family="Times,serif" font-size="14.00">determine_layout</text>
</g>
</g>
</svg>
