<?xml version="1.0" encoding="UTF-8" standalone="no"?>
<!DOCTYPE svg PUBLIC "-//W3C//DTD SVG 1.1//EN"
 "http://www.w3.org/Graphics/SVG/1.1/DTD/svg11.dtd">
<!-- Generated by graphviz version 2.38.0 (20140413.2041)
 -->
<!-- Title: models_diagram Pages: 1 -->
<svg width="1054pt" height="481pt"
 viewBox="0.00 0.00 1054.03 481.00" xmlns="http://www.w3.org/2000/svg" xmlns:xlink="http://www.w3.org/1999/xlink">
<g id="graph0" class="graph" transform="scale(1 1) rotate(0) translate(4 477)">
<title>models_diagram</title>
<polygon fill="none" stroke="none" points="-4,4 -4,-477 1050.03,-477 1050.03,4 -4,4"/>
<!-- _diagram_info -->
<g id="node1" class="node"><title>_diagram_info</title>
<text text-anchor="start" x="8" y="-444.6" font-family="Times,serif" font-size="13.00">Models diagram</text>
<text text-anchor="start" x="8" y="-431.6" font-family="Times,serif" font-size="13.00">Date: Oct 09 2016 &#45; 17:24</text>
<text text-anchor="start" x="8" y="-418.6" font-family="Times,serif" font-size="13.00">Migration version: 20161005033305</text>
<text text-anchor="start" x="8" y="-405.6" font-family="Times,serif" font-size="13.00">Generated by RailRoady 1.5.2</text>
<text text-anchor="start" x="8" y="-392.6" font-family="Times,serif" font-size="13.00">http://railroady.prestonlee.com</text>
</g>
<!-- ApplicationRecord -->
<g id="node2" class="node"><title>ApplicationRecord</title>
<ellipse fill="none" stroke="black" cx="302.688" cy="-422.5" rx="77.2916" ry="18"/>
<text text-anchor="middle" x="302.688" y="-418.3" font-family="Times,serif" font-size="14.00">ApplicationRecord</text>
</g>
<!-- Booking -->
<g id="node3" class="node"><title>Booking</title>
<path fill="none" stroke="black" d="M409.825,-386.5C409.825,-386.5 633.55,-386.5 633.55,-386.5 639.55,-386.5 645.55,-392.5 645.55,-398.5 645.55,-398.5 645.55,-446.5 645.55,-446.5 645.55,-452.5 639.55,-458.5 633.55,-458.5 633.55,-458.5 409.825,-458.5 409.825,-458.5 403.825,-458.5 397.825,-452.5 397.825,-446.5 397.825,-446.5 397.825,-398.5 397.825,-398.5 397.825,-392.5 403.825,-386.5 409.825,-386.5"/>
<text text-anchor="middle" x="521.688" y="-443.3" font-family="Times,serif" font-size="14.00">Booking</text>
<polyline fill="none" stroke="black" points="397.825,-436.5 645.55,-436.5 "/>
<text text-anchor="start" x="405.825" y="-421.3" font-family="Times,serif" font-size="14.00">id :integer</text>
<text text-anchor="start" x="405.825" y="-407.3" font-family="Times,serif" font-size="14.00">created_at :timestamp without time zone</text>
<text text-anchor="start" x="405.825" y="-393.3" font-family="Times,serif" font-size="14.00">updated_at :timestamp without time zone</text>
</g>
<!-- Course -->
<g id="node4" class="node"><title>Course</title>
<path fill="none" stroke="black" d="M675.825,-165.5C675.825,-165.5 899.55,-165.5 899.55,-165.5 905.55,-165.5 911.55,-171.5 911.55,-177.5 911.55,-177.5 911.55,-281.5 911.55,-281.5 911.55,-287.5 905.55,-293.5 899.55,-293.5 899.55,-293.5 675.825,-293.5 675.825,-293.5 669.825,-293.5 663.825,-287.5 663.825,-281.5 663.825,-281.5 663.825,-177.5 663.825,-177.5 663.825,-171.5 669.825,-165.5 675.825,-165.5"/>
<text text-anchor="middle" x="787.688" y="-278.3" font-family="Times,serif" font-size="14.00">Course</text>
<polyline fill="none" stroke="black" points="663.825,-271.5 911.55,-271.5 "/>
<text text-anchor="start" x="671.825" y="-256.3" font-family="Times,serif" font-size="14.00">number :integer</text>
<text text-anchor="start" x="671.825" y="-242.3" font-family="Times,serif" font-size="14.00">created_at :timestamp without time zone</text>
<text text-anchor="start" x="671.825" y="-228.3" font-family="Times,serif" font-size="14.00">updated_at :timestamp without time zone</text>
<text text-anchor="start" x="671.825" y="-214.3" font-family="Times,serif" font-size="14.00">id :integer</text>
<text text-anchor="start" x="671.825" y="-200.3" font-family="Times,serif" font-size="14.00">name :character varying</text>
<text text-anchor="start" x="671.825" y="-186.3" font-family="Times,serif" font-size="14.00">subject_id :integer</text>
<text text-anchor="start" x="671.825" y="-172.3" font-family="Times,serif" font-size="14.00">code_number :character varying</text>
</g>
<!-- Tutor -->
<g id="node6" class="node"><title>Tutor</title>
<path fill="none" stroke="black" d="M542.825,-0.5C542.825,-0.5 766.55,-0.5 766.55,-0.5 772.55,-0.5 778.55,-6.5 778.55,-12.5 778.55,-12.5 778.55,-74.5 778.55,-74.5 778.55,-80.5 772.55,-86.5 766.55,-86.5 766.55,-86.5 542.825,-86.5 542.825,-86.5 536.825,-86.5 530.825,-80.5 530.825,-74.5 530.825,-74.5 530.825,-12.5 530.825,-12.5 530.825,-6.5 536.825,-0.5 542.825,-0.5"/>
<text text-anchor="middle" x="654.688" y="-71.3" font-family="Times,serif" font-size="14.00">Tutor</text>
<polyline fill="none" stroke="black" points="530.825,-64.5 778.55,-64.5 "/>
<text text-anchor="start" x="538.825" y="-49.3" font-family="Times,serif" font-size="14.00">id :integer</text>
<text text-anchor="start" x="538.825" y="-35.3" font-family="Times,serif" font-size="14.00">created_at :timestamp without time zone</text>
<text text-anchor="start" x="538.825" y="-21.3" font-family="Times,serif" font-size="14.00">updated_at :timestamp without time zone</text>
<text text-anchor="start" x="538.825" y="-7.3" font-family="Times,serif" font-size="14.00">user_id :integer</text>
</g>
<!-- Course&#45;&gt;Tutor -->
<g id="edge1" class="edge"><title>Course&#45;&gt;Tutor</title>
<path fill="none" stroke="#e82550" d="M736.08,-157.103C721.083,-136.355 705.021,-114.134 691.161,-94.9594"/>
<polygon fill="#e82550" stroke="#e82550" points="736.245,-157.331 738.456,-168.071 739.174,-161.383 742.103,-165.435 742.103,-165.435 742.103,-165.435 739.174,-161.383 745.75,-162.799 736.245,-157.331 736.245,-157.331"/>
<polygon fill="#e82550" stroke="#e82550" points="691.022,-94.7664 688.811,-84.0258 688.093,-90.7142 685.163,-86.6619 685.163,-86.6619 685.163,-86.6619 688.093,-90.7142 681.516,-89.2981 691.022,-94.7664 691.022,-94.7664"/>
</g>
<!-- Subject -->
<g id="node5" class="node"><title>Subject</title>
<path fill="none" stroke="black" d="M675.825,-372.5C675.825,-372.5 899.55,-372.5 899.55,-372.5 905.55,-372.5 911.55,-378.5 911.55,-384.5 911.55,-384.5 911.55,-460.5 911.55,-460.5 911.55,-466.5 905.55,-472.5 899.55,-472.5 899.55,-472.5 675.825,-472.5 675.825,-472.5 669.825,-472.5 663.825,-466.5 663.825,-460.5 663.825,-460.5 663.825,-384.5 663.825,-384.5 663.825,-378.5 669.825,-372.5 675.825,-372.5"/>
<text text-anchor="middle" x="787.688" y="-457.3" font-family="Times,serif" font-size="14.00">Subject</text>
<polyline fill="none" stroke="black" points="663.825,-450.5 911.55,-450.5 "/>
<text text-anchor="start" x="671.825" y="-435.3" font-family="Times,serif" font-size="14.00">id :integer</text>
<text text-anchor="start" x="671.825" y="-421.3" font-family="Times,serif" font-size="14.00">created_at :timestamp without time zone</text>
<text text-anchor="start" x="671.825" y="-407.3" font-family="Times,serif" font-size="14.00">updated_at :timestamp without time zone</text>
<text text-anchor="start" x="671.825" y="-393.3" font-family="Times,serif" font-size="14.00">name :character varying</text>
<text text-anchor="start" x="671.825" y="-379.3" font-family="Times,serif" font-size="14.00">code :character varying</text>
</g>
<!-- Subject&#45;&gt;Course -->
<g id="edge2" class="edge"><title>Subject&#45;&gt;Course</title>
<path fill="none" stroke="#92559a" d="M787.688,-364.269C787.688,-345.217 787.688,-323.729 787.688,-303.641"/>
<ellipse fill="none" stroke="#92559a" cx="787.688" cy="-368.313" rx="4" ry="4"/>
<polygon fill="#92559a" stroke="#92559a" points="787.688,-303.597 792.188,-293.597 787.688,-298.597 787.688,-293.597 787.688,-293.597 787.688,-293.597 787.688,-298.597 783.188,-293.597 787.688,-303.597 787.688,-303.597"/>
</g>
<!-- TutorCourse -->
<g id="node7" class="node"><title>TutorCourse</title>
<path fill="none" stroke="black" d="M941.344,-393.5C941.344,-393.5 1034.03,-393.5 1034.03,-393.5 1040.03,-393.5 1046.03,-399.5 1046.03,-405.5 1046.03,-405.5 1046.03,-439.5 1046.03,-439.5 1046.03,-445.5 1040.03,-451.5 1034.03,-451.5 1034.03,-451.5 941.344,-451.5 941.344,-451.5 935.344,-451.5 929.344,-445.5 929.344,-439.5 929.344,-439.5 929.344,-405.5 929.344,-405.5 929.344,-399.5 935.344,-393.5 941.344,-393.5"/>
<text text-anchor="middle" x="987.688" y="-436.3" font-family="Times,serif" font-size="14.00">TutorCourse</text>
<polyline fill="none" stroke="black" points="929.344,-429.5 1046.03,-429.5 "/>
<text text-anchor="start" x="937.344" y="-414.3" font-family="Times,serif" font-size="14.00">course_id :integer</text>
<text text-anchor="start" x="937.344" y="-400.3" font-family="Times,serif" font-size="14.00">tutor_id :integer</text>
</g>
<!-- User -->
<g id="node8" class="node"><title>User</title>
<path fill="none" stroke="black" d="M409.825,-123.5C409.825,-123.5 633.55,-123.5 633.55,-123.5 639.55,-123.5 645.55,-129.5 645.55,-135.5 645.55,-135.5 645.55,-323.5 645.55,-323.5 645.55,-329.5 639.55,-335.5 633.55,-335.5 633.55,-335.5 409.825,-335.5 409.825,-335.5 403.825,-335.5 397.825,-329.5 397.825,-323.5 397.825,-323.5 397.825,-135.5 397.825,-135.5 397.825,-129.5 403.825,-123.5 409.825,-123.5"/>
<text text-anchor="middle" x="521.688" y="-320.3" font-family="Times,serif" font-size="14.00">User</text>
<polyline fill="none" stroke="black" points="397.825,-313.5 645.55,-313.5 "/>
<text text-anchor="start" x="405.825" y="-298.3" font-family="Times,serif" font-size="14.00">major :character varying</text>
<text text-anchor="start" x="405.825" y="-284.3" font-family="Times,serif" font-size="14.00">first_name :character varying</text>
<text text-anchor="start" x="405.825" y="-270.3" font-family="Times,serif" font-size="14.00">last_name :character varying</text>
<text text-anchor="start" x="405.825" y="-256.3" font-family="Times,serif" font-size="14.00">email :character varying</text>
<text text-anchor="start" x="405.825" y="-242.3" font-family="Times,serif" font-size="14.00">is_admin :integer</text>
<text text-anchor="start" x="405.825" y="-228.3" font-family="Times,serif" font-size="14.00">password_digest :character varying</text>
<text text-anchor="start" x="405.825" y="-214.3" font-family="Times,serif" font-size="14.00">created_at :timestamp without time zone</text>
<text text-anchor="start" x="405.825" y="-200.3" font-family="Times,serif" font-size="14.00">updated_at :timestamp without time zone</text>
<text text-anchor="start" x="405.825" y="-186.3" font-family="Times,serif" font-size="14.00">is_tutor :integer</text>
<text text-anchor="start" x="405.825" y="-172.3" font-family="Times,serif" font-size="14.00">birthday :date</text>
<text text-anchor="start" x="405.825" y="-158.3" font-family="Times,serif" font-size="14.00">grad_year :date</text>
<text text-anchor="start" x="405.825" y="-144.3" font-family="Times,serif" font-size="14.00">gender :character varying</text>
<text text-anchor="start" x="405.825" y="-130.3" font-family="Times,serif" font-size="14.00">id :integer</text>
</g>
<!-- User&#45;&gt;Tutor -->
<g id="edge3" class="edge"><title>User&#45;&gt;Tutor</title>
<path fill="none" stroke="#26b905" d="M602.479,-116.728C608.313,-108.658 613.992,-100.801 619.326,-93.4209"/>
<ellipse fill="none" stroke="#26b905" cx="600.048" cy="-120.091" rx="4.00002" ry="4.00002"/>
<ellipse fill="#26b905" stroke="#26b905" cx="621.779" cy="-90.0273" rx="4.00002" ry="4.00002"/>
</g>
</g>
</svg>
