<?xml version="1.0" encoding="UTF-8" standalone="no"?>
<!DOCTYPE svg PUBLIC "-//W3C//DTD SVG 1.1//EN"
 "http://www.w3.org/Graphics/SVG/1.1/DTD/svg11.dtd">
<!-- Generated by graphviz version 2.38.0 (20140413.2041)
 -->
<!-- Title: models_diagram Pages: 1 -->
<svg width="705pt" height="225pt"
 viewBox="0.00 0.00 705.19 225.00" xmlns="http://www.w3.org/2000/svg" xmlns:xlink="http://www.w3.org/1999/xlink">
<g id="graph0" class="graph" transform="scale(1 1) rotate(0) translate(4 221)">
<title>models_diagram</title>
<polygon fill="none" stroke="none" points="-4,4 -4,-221 701.189,-221 701.189,4 -4,4"/>
<!-- _diagram_info -->
<g id="node1" class="node"><title>_diagram_info</title>
<text text-anchor="start" x="8" y="-202.6" font-family="Times,serif" font-size="13.00">Models diagram</text>
<text text-anchor="start" x="8" y="-189.6" font-family="Times,serif" font-size="13.00">Date: Oct 03 2016 &#45; 10:34</text>
<text text-anchor="start" x="8" y="-176.6" font-family="Times,serif" font-size="13.00">Migration version: 20161002055209</text>
<text text-anchor="start" x="8" y="-163.6" font-family="Times,serif" font-size="13.00">Generated by RailRoady 1.5.2</text>
<text text-anchor="start" x="8" y="-150.6" font-family="Times,serif" font-size="13.00">http://railroady.prestonlee.com</text>
</g>
<!-- ApplicationRecord -->
<g id="node2" class="node"><title>ApplicationRecord</title>
<ellipse fill="none" stroke="black" cx="302.688" cy="-180.5" rx="77.2916" ry="18"/>
<text text-anchor="middle" x="302.688" y="-176.3" font-family="Times,serif" font-size="14.00">ApplicationRecord</text>
</g>
<!-- Booking -->
<g id="node3" class="node"><title>Booking</title>
<ellipse fill="none" stroke="black" cx="438.688" cy="-180.5" rx="40.6421" ry="18"/>
<text text-anchor="middle" x="438.688" y="-176.3" font-family="Times,serif" font-size="14.00">Booking</text>
</g>
<!-- Course -->
<g id="node4" class="node"><title>Course</title>
<ellipse fill="none" stroke="black" cx="533.688" cy="-90" rx="35.3216" ry="18"/>
<text text-anchor="middle" x="533.688" y="-85.8" font-family="Times,serif" font-size="14.00">Course</text>
</g>
<!-- Tutor -->
<g id="node6" class="node"><title>Tutor</title>
<ellipse fill="none" stroke="black" cx="493.688" cy="-18" rx="29.3953" ry="18"/>
<text text-anchor="middle" x="493.688" y="-13.8" font-family="Times,serif" font-size="14.00">Tutor</text>
</g>
<!-- Course&#45;&gt;Tutor -->
<g id="edge1" class="edge"><title>Course&#45;&gt;Tutor</title>
<path fill="none" stroke="#42ddee" d="M519.115,-63.4971C515.525,-57.2155 511.683,-50.4923 508.101,-44.2239"/>
<polygon fill="#42ddee" stroke="#42ddee" points="519.247,-63.7285 520.301,-74.6436 521.728,-68.0698 524.208,-72.411 524.208,-72.411 524.208,-72.411 521.728,-68.0698 528.115,-70.1783 519.247,-63.7285 519.247,-63.7285"/>
<polygon fill="#42ddee" stroke="#42ddee" points="508.061,-44.1524 507.006,-33.2373 505.58,-39.8112 503.099,-35.4699 503.099,-35.4699 503.099,-35.4699 505.58,-39.8112 499.192,-37.7026 508.061,-44.1524 508.061,-44.1524"/>
</g>
<!-- Subject -->
<g id="node5" class="node"><title>Subject</title>
<ellipse fill="none" stroke="black" cx="533.688" cy="-180.5" rx="36.7663" ry="18"/>
<text text-anchor="middle" x="533.688" y="-176.3" font-family="Times,serif" font-size="14.00">Subject</text>
</g>
<!-- Subject&#45;&gt;Course -->
<g id="edge2" class="edge"><title>Subject&#45;&gt;Course</title>
<path fill="none" stroke="#7fb040" d="M533.688,-154.189C533.688,-142.971 533.688,-129.752 533.688,-118.311"/>
<ellipse fill="none" stroke="#7fb040" cx="533.688" cy="-158.436" rx="4" ry="4"/>
<polygon fill="#7fb040" stroke="#7fb040" points="533.688,-118.011 538.188,-108.011 533.688,-113.011 533.688,-108.011 533.688,-108.011 533.688,-108.011 533.688,-113.011 529.188,-108.011 533.688,-118.011 533.688,-118.011"/>
</g>
<!-- TutorCourse -->
<g id="node7" class="node"><title>TutorCourse</title>
<ellipse fill="none" stroke="black" cx="642.688" cy="-180.5" rx="54.5024" ry="18"/>
<text text-anchor="middle" x="642.688" y="-176.3" font-family="Times,serif" font-size="14.00">TutorCourse</text>
</g>
<!-- User -->
<g id="node8" class="node"><title>User</title>
<ellipse fill="none" stroke="black" cx="453.688" cy="-90" rx="27" ry="18"/>
<text text-anchor="middle" x="453.688" y="-85.8" font-family="Times,serif" font-size="14.00">User</text>
</g>
<!-- User&#45;&gt;Tutor -->
<g id="edge3" class="edge"><title>User&#45;&gt;Tutor</title>
<path fill="none" stroke="#17dd6c" d="M466.962,-65.7693C471.264,-58.2408 476.036,-49.8902 480.343,-42.3529"/>
<ellipse fill="none" stroke="#17dd6c" cx="464.95" cy="-69.2917" rx="4.00002" ry="4.00002"/>
<ellipse fill="#17dd6c" stroke="#17dd6c" cx="482.476" cy="-38.6203" rx="4.00002" ry="4.00002"/>
</g>
</g>
</svg>
